<svg id="Layer_1" data-name="Layer 1" xmlns="http://www.w3.org/2000/svg" viewBox="0 0 283.46 283.46"><defs><style>.cls-1{fill:none;stroke:#1d1d1b;stroke-linejoin:round;}</style></defs><path class="cls-1" d="M170.35,166.09a10.62,10.62,0,0,0,4.79-1.14,11.2,11.2,0,0,0,1.47-.91,10.72,10.72,0,0,0,2.38-2.42,10.57,10.57,0,0,0,.1-12.09,10.58,10.58,0,0,0-2.24-2.38,9.89,9.89,0,0,0-1.52-1A10.6,10.6,0,0,0,160,153.4a10.53,10.53,0,0,0,3,9.69A10.54,10.54,0,0,0,170.35,166.09Z"/><path class="cls-1" d="M181.5,178.26a4.88,4.88,0,0,0,2.09,3.64,12.47,12.47,0,0,0,3.55,1.87,22.55,22.55,0,0,0,7.46,1.2,22.21,22.21,0,0,0,7.64-1.26,12.47,12.47,0,0,0,3.27-1.74,6.84,6.84,0,0,0,1.39-1.4c.1-.15.2-.3.29-.46a3.65,3.65,0,0,0-.17-4l-.18-.26a7.16,7.16,0,0,0-1.42-1.39,12.48,12.48,0,0,0-3.24-1.69,22.18,22.18,0,0,0-7.58-1.24,22.86,22.86,0,0,0-6.95,1,13.32,13.32,0,0,0-3.74,1.82A5,5,0,0,0,181.5,178.26Z"/><path class="cls-1" d="M75.77,178.26a3.83,3.83,0,0,0,.5,1.85c.09.16.19.31.29.46A7.38,7.38,0,0,0,78,182a12.47,12.47,0,0,0,3.27,1.74A22.21,22.21,0,0,0,88.86,185a22.55,22.55,0,0,0,7.46-1.2,12.47,12.47,0,0,0,3.55-1.87,4.85,4.85,0,0,0,2.09-3.64,5,5,0,0,0-2.4-3.87,13.38,13.38,0,0,0-3.75-1.82,22.82,22.82,0,0,0-7-1,22.22,22.22,0,0,0-7.58,1.24A12.64,12.64,0,0,0,78,174.48a7.16,7.16,0,0,0-1.42,1.39l-.18.26A3.92,3.92,0,0,0,75.77,178.26Z"/><path class="cls-1" d="M113.11,153.37a2.13,2.13,0,0,1,2.14,2.13,2.1,2.1,0,0,1-.65,1.53A2.13,2.13,0,0,1,111,155.5a2.1,2.1,0,0,1,.65-1.53A2.16,2.16,0,0,1,113.11,153.37Z"/><path class="cls-1" d="M141.73,202.45A25.13,25.13,0,0,0,150,201a32.78,32.78,0,0,0,7.46-3.8l.53-.36a41.3,41.3,0,0,0,9.62-9.56l.61-.89a29.48,29.48,0,0,0,2-3.53,12.66,12.66,0,0,0,1.39-4.92,2.29,2.29,0,0,0-1.28-2.36,5.78,5.78,0,0,0-2.81-.22,37.6,37.6,0,0,0-4.94,1c-1.64.4-3.3.84-4.95,1.24s-3.28.77-5,1.09c-.76.15-1.66.31-2.42.43h-.1c-.84.13-1.7.25-2.54.35-.65.07-1.22.13-1.88.18l-.65.05-1.22.07c-.72,0-1.43,0-2.15,0s-1.43,0-2.15,0l-1.22-.07-.65-.05c-.65,0-1.23-.11-1.88-.18-.84-.1-1.69-.22-2.54-.35h-.09c-.77-.12-1.66-.28-2.43-.43-1.71-.32-3.29-.68-5-1.09s-3.32-.84-5-1.24a37.28,37.28,0,0,0-4.94-1q-.34,0-.72-.06a4.74,4.74,0,0,0-2.08.28,2.29,2.29,0,0,0-1.28,2.36,12.82,12.82,0,0,0,1.38,4.92,29.55,29.55,0,0,0,2,3.53c.19.3.4.59.61.89a40.8,40.8,0,0,0,9.62,9.56l.53.36a32.71,32.71,0,0,0,7.45,3.8A25.18,25.18,0,0,0,141.73,202.45Z"/><path class="cls-1" d="M170.35,153.37a2.1,2.1,0,0,0-1.48.6,2.13,2.13,0,1,0,3.62,1.53,2.15,2.15,0,0,0-2.14-2.13Z"/><path class="cls-1" d="M113.11,166.09a10.58,10.58,0,0,0,7.39-3,10.87,10.87,0,0,0,2.35-3.42,10.51,10.51,0,0,0,.85-4.17,10.56,10.56,0,0,0-4.22-8.45,10.53,10.53,0,0,0-11.34-.89,9.89,9.89,0,0,0-1.52,1,10.58,10.58,0,0,0-2.24,2.38,10.52,10.52,0,0,0,.1,12.09,10.32,10.32,0,0,0,2.38,2.42,10,10,0,0,0,1.47.91A10.57,10.57,0,0,0,113.11,166.09Z"/><path class="cls-1" d="M184.44,73.09a124.43,124.43,0,0,0,.09-16,6.13,6.13,0,0,0-.49-2.5,5.21,5.21,0,0,0-1.89-1.66,13.4,13.4,0,1,1,15.35-.33,5.33,5.33,0,0,0-1.94,1.89,6,6,0,0,0-.26,2.73,129.3,129.3,0,0,1-.47,20.45"/><path class="cls-1" d="M88.63,77.63a130.5,130.5,0,0,1-.47-20.45,5.9,5.9,0,0,0-.26-2.73A5.25,5.25,0,0,0,86,52.56a13.39,13.39,0,1,1,15.36.33,5.13,5.13,0,0,0-1.89,1.66,5.82,5.82,0,0,0-.49,2.5,120.93,120.93,0,0,0,.09,16"/><path class="cls-1" d="M184.44,73.09a57.77,57.77,0,0,1,9.82,4.22l.57.32a41.34,41.34,0,0,1,12,10.16A52.41,52.41,0,0,1,215,103a109.23,109.23,0,0,1,4.89,20.84c1.47,10.07,2.05,21.15,2.51,29.93.21,4,.45,8.26.58,12.68,0,1.37.07,2.74.08,4.17,0,2.81,0,5.64-.09,8.5-.15,4.21-.47,8.46-1,12.62-.52,4.47-1.13,8.17-2,12.37a125,125,0,0,1-3.13,12.58q-.49,1.61-1,3.21a77.77,77.77,0,0,1-3.65,8.88,57.5,57.5,0,0,1-3.41,6.06,31.32,31.32,0,0,1-2.74,4.34,29.64,29.64,0,0,1-6.45,6.26c-.81.57-1.63,1.1-2.43,1.56s-1.41.8-2.08,1.13c-1.71.87-3.56,1.62-3.92,1.76l-1.13.46-.48.19-1,.36c-.73.27-2.1.76-4.09,1.3-1.35.37-2.94.73-4.35,1s-3,.54-4.52.75-3.11.38-4.66.52c-3.18.29-6.44.45-9.63.53-6.06.17-13.5.07-19.59.07s-13.53.1-19.58-.07c-3.2-.08-6.46-.24-9.64-.53-1.55-.14-3.11-.31-4.66-.52s-3-.46-4.52-.75-3-.64-4.34-1c-2-.54-3.36-1-4.1-1.3l-1-.36-.48-.19-1.13-.46c-.36-.14-2.2-.89-3.92-1.76-.67-.33-1.37-.71-2.08-1.13s-1.61-1-2.43-1.56a29.87,29.87,0,0,1-6.45-6.26,32.29,32.29,0,0,1-2.74-4.34,59.34,59.34,0,0,1-3.41-6.06,77.77,77.77,0,0,1-3.65-8.88c-.37-1.07-.71-2.14-1-3.21a127.73,127.73,0,0,1-3.13-12.58c-.84-4.2-1.44-7.9-2-12.37-.49-4.16-.8-8.41-1-12.62q-.15-4.29-.1-8.5c0-1.43.05-2.8.09-4.17.13-4.42.36-8.71.57-12.68.46-8.78,1-19.86,2.51-29.93A110,110,0,0,1,68.5,103a52.67,52.67,0,0,1,8.09-15.22,41.3,41.3,0,0,1,12-10.16l.57-.32A57.42,57.42,0,0,1,99,73.09c2-.65,4-1.22,6.07-1.71,11.56-2.76,24.45-3.26,36.63-3.26s25.07.5,36.63,3.26C180.44,71.87,182.46,72.44,184.44,73.09Z"/></svg>