<svg id="Layer_1" data-name="Layer 1" xmlns="http://www.w3.org/2000/svg" viewBox="0 0 283.46 283.46"><defs><style>.cls-1{fill:none;stroke:#1d1d1b;stroke-linejoin:round;}</style></defs><path class="cls-1" d="M195.64,173.33a11.15,11.15,0,1,1,7.88-3.26A11.16,11.16,0,0,1,195.64,173.33Z"/><path class="cls-1" d="M167.76,69.24a26,26,0,1,0-52,0"/><path class="cls-1" d="M100.84,69.24a41.12,41.12,0,0,1,.78-8A41.89,41.89,0,0,1,104,53.59a40.94,40.94,0,0,1,45.76-24.46,40.17,40.17,0,0,1,7.67,2.33,40.82,40.82,0,0,1,22.13,22.13,40.17,40.17,0,0,1,2.33,7.67,41.05,41.05,0,0,1,.79,8"/><line class="cls-1" x1="141.73" y1="84.11" x2="141.73" y2="125"/><line class="cls-1" x1="141.73" y1="199.35" x2="141.73" y2="240.25"/><path class="cls-1" d="M54.74,69.24h174c.4,0,.8,0,1.2,0h0l.21,0,.3,0,.3,0,.13,0,.07,0H231a5,5,0,0,1,1.18.45l.09,0,.07,0h0l.08.05.09,0,.08.06.08.06.08.06.08.06.08.06.07.06h0l.07.07.07.06a4.66,4.66,0,0,1,.76,1h0v0l0,0,.05.09,0,.09,0,.09,0,0,0,0,0,.09,0,.07v0l0,.09,0,.1,0,.09,0,.1,0,.09a7.17,7.17,0,0,1,.18.9c0,.14,0,.27,0,.41s0,.14,0,.21c0,.34,0,.68,0,1V249.38c0,.31,0,.62,0,.92v0h0v.08c0,.14,0,.35-.06.51l0,.2a.36.36,0,0,0,0,.1.36.36,0,0,0,0,.1l0,.06v0h0a5.1,5.1,0,0,1-.41,1.13h0v0l0,.05a.41.41,0,0,1-.05.09c-.06.11-.14.23-.21.34l-.12.16-.06.08,0,0,0,0v0h0a4,4,0,0,1-.55.54h0l0,0,0,0-.08.06-.16.12-.34.21-.09.05,0,0,0,0h0a5,5,0,0,1-1.14.42h-.11l-.1,0-.1,0-.2,0-.51.05h-.1q-.47,0-.93,0H54.74c-.34,0-.69,0-1,0l-.21,0-.4,0a7.08,7.08,0,0,1-.8-.16l-.2-.06a4.4,4.4,0,0,1-1-.44h0a4.25,4.25,0,0,1-.94-.75l-.07-.07-.07-.08h0L50,253.4l-.07-.08-.06-.08-.06-.08-.06-.08-.05-.09-.06-.08-.05-.09h0l0-.07-.05-.09a5.13,5.13,0,0,1-.45-1.18v-.05l0-.08s0-.08,0-.12l-.06-.3,0-.31a1.5,1.5,0,0,1,0-.2v0c0-.4,0-.8,0-1.2v-175c0-.07,0-.14,0-.21s0-.27,0-.41a7.55,7.55,0,0,1,.16-.8l.06-.19a4.68,4.68,0,0,1,.44-1h0a4.4,4.4,0,0,1,.76-1l.07-.06.08-.07h0l.06-.06.08-.06.08-.06.08-.06.08-.06.09-.06L51,70l.09-.05h0l.08,0,.08,0a5.13,5.13,0,0,1,1.18-.45h.05l.08,0,.12,0,.3,0,.31,0,.2,0h0C53.94,69.24,54.34,69.24,54.74,69.24Z"/><path class="cls-1" d="M141.73,199.35a37.15,37.15,0,1,0-26.29-10.88A37.15,37.15,0,0,0,141.73,199.35Z"/><path class="cls-1" d="M87.83,173.33a11.15,11.15,0,1,0-7.89-3.26A11.13,11.13,0,0,0,87.83,173.33Z"/><path class="cls-1" d="M234.07,71.8h0"/><line class="cls-1" x1="48.79" y1="84.11" x2="234.67" y2="84.11"/><line class="cls-1" x1="48.79" y1="240.25" x2="234.67" y2="240.25"/></svg>