<svg id="Layer_1" data-name="Layer 1" xmlns="http://www.w3.org/2000/svg" viewBox="0 0 283.46 283.46"><defs><style>.cls-1{fill:none;stroke:#b4b4b4;stroke-linejoin:round;stroke-width:4px;}</style></defs><path class="cls-1" d="M211.76,121.41a32,32,0,0,1,8.07,7.44,4.48,4.48,0,0,0,6.28.92,32.37,32.37,0,0,0-32-55.47,4.45,4.45,0,0,0-2.34,5.89,32.4,32.4,0,0,1,2.4,10.71h0a32.17,32.17,0,0,1,13.32,12.65A30.68,30.68,0,0,1,211.76,121.41Z"/><path class="cls-1" d="M158.78,70.74a32.14,32.14,0,0,1,10.48-3.27,4.47,4.47,0,0,0,3.94-5,32.38,32.38,0,0,0-64.06,0,4.46,4.46,0,0,0,3.94,5,32.08,32.08,0,0,1,10.47,3.27h0a32.27,32.27,0,0,1,17.62-5.21A30.68,30.68,0,0,1,158.78,70.74Z"/><path class="cls-1" d="M65.72,125.86a31.82,31.82,0,0,1,5.08-4.07h0a32.22,32.22,0,0,1,4.3-17.86A30.69,30.69,0,0,1,88.41,91.28a32.06,32.06,0,0,1,2.41-10.7,4.47,4.47,0,0,0-2.34-5.9A32.37,32.37,0,0,0,52,125.86"/><path class="cls-1" d="M52.93,157.6a32.37,32.37,0,0,0,35.77,52,4.47,4.47,0,0,0,2.34-5.9A32.06,32.06,0,0,1,88.63,193h0a32.24,32.24,0,0,1-13.32-12.65A30.68,30.68,0,0,1,71,162.5a32.23,32.23,0,0,1-5.89-4.89"/><path class="cls-1" d="M124,213.17a32.25,32.25,0,0,1-10.47,3.27,4.46,4.46,0,0,0-3.94,5,32.37,32.37,0,0,0,64.06,0,4.46,4.46,0,0,0-3.94-5,32.25,32.25,0,0,1-10.47-3.27h0a32.27,32.27,0,0,1-17.62,5.21A30.81,30.81,0,0,1,124,213.17Z"/><path class="cls-1" d="M194.36,192.62a32.15,32.15,0,0,1-2.4,10.71,4.47,4.47,0,0,0,2.34,5.9,32.37,32.37,0,0,0,32-55.47,4.47,4.47,0,0,0-6.28.91,32,32,0,0,1-8.07,7.44h0a32.18,32.18,0,0,1-4.3,17.86A30.66,30.66,0,0,1,194.36,192.62Z"/><path class="cls-1" d="M192.06,89a32.17,32.17,0,0,1,10.71,2.41A4.47,4.47,0,0,0,208.66,89a32.37,32.37,0,0,0-55.47-32,4.47,4.47,0,0,0,.92,6.28,32.15,32.15,0,0,1,7.44,8.07h0a32.2,32.2,0,0,1,17.86,4.3A30.66,30.66,0,0,1,192.06,89Z"/><path class="cls-1" d="M157.79,120.88a32.39,32.39,0,0,1,29.31-2.35,4.45,4.45,0,0,0,5.89-2.35,32.37,32.37,0,0,0-55.47-32,4.47,4.47,0,0,0,.92,6.28A32.37,32.37,0,0,1,151.05,117,4.44,4.44,0,0,0,157.79,120.88Z"/><path class="cls-1" d="M120.85,71.58a32.45,32.45,0,0,1,7.43-8.07,4.45,4.45,0,0,0,.92-6.27,32.37,32.37,0,0,0-55.47,32,4.48,4.48,0,0,0,5.9,2.35,32.06,32.06,0,0,1,10.7-2.41h0A32.17,32.17,0,0,1,103,75.88,30.74,30.74,0,0,1,120.85,71.58Z"/><path class="cls-1" d="M131.34,117.22A32.35,32.35,0,0,1,144,90.66a4.47,4.47,0,0,0,.91-6.28,32.37,32.37,0,0,0-55.47,32,4.47,4.47,0,0,0,5.9,2.34,32.42,32.42,0,0,1,29.31,2.35A4.43,4.43,0,0,0,131.34,117.22Z"/><path class="cls-1" d="M90.72,194.93A32.17,32.17,0,0,1,80,192.52a4.47,4.47,0,0,0-5.9,2.34,32.37,32.37,0,0,0,55.48,32,4.48,4.48,0,0,0-.92-6.28,32,32,0,0,1-7.44-8.07h0a32.19,32.19,0,0,1-17.86-4.29A30.71,30.71,0,0,1,90.72,194.93Z"/><path class="cls-1" d="M125,163a32.39,32.39,0,0,1-29.31,2.36,4.47,4.47,0,0,0-5.9,2.34,32.37,32.37,0,0,0,55.48,32,4.48,4.48,0,0,0-.92-6.28,32.39,32.39,0,0,1-12.62-26.56A4.44,4.44,0,0,0,125,163Z"/><path class="cls-1" d="M161.93,212.32a32,32,0,0,1-7.44,8.07,4.48,4.48,0,0,0-.92,6.28,32.37,32.37,0,0,0,55.48-32,4.47,4.47,0,0,0-5.9-2.34,32.17,32.17,0,0,1-10.71,2.41h0A32.17,32.17,0,0,1,179.79,208,30.74,30.74,0,0,1,161.93,212.32Z"/><path class="cls-1" d="M151.44,166.69a32.39,32.39,0,0,1-12.62,26.56,4.48,4.48,0,0,0-.92,6.28,32.37,32.37,0,0,0,55.48-32,4.47,4.47,0,0,0-5.9-2.34,32.39,32.39,0,0,1-29.31-2.36A4.44,4.44,0,0,0,151.44,166.69Z"/><path class="cls-1" d="M212.6,159.35a32,32,0,0,1,3.27,10.47,4.47,4.47,0,0,0,5,3.94,32.37,32.37,0,0,0,0-64.06,4.48,4.48,0,0,0-5,3.94,32.14,32.14,0,0,1-3.27,10.48h0a32.17,32.17,0,0,1,5.21,17.61A30.71,30.71,0,0,1,212.6,159.35Z"/><path class="cls-1" d="M167.83,145.62a32.39,32.39,0,0,1,16.7,24.2,4.47,4.47,0,0,0,5,3.94,32.37,32.37,0,0,0,0-64.06,4.47,4.47,0,0,0-5,3.94,32.39,32.39,0,0,1-16.7,24.21A4.44,4.44,0,0,0,167.83,145.62Z"/><path class="cls-1" d="M141.17,28.35A113.39,113.39,0,0,0,28.91,125.86H138.85a15.87,15.87,0,1,1,0,31.74H28.91A113.38,113.38,0,1,0,141.17,28.35Z"/></svg>