<?xml version="1.0" encoding="utf-8"?>
<!-- Generator: Adobe Illustrator 23.0.1, SVG Export Plug-In . SVG Version: 6.00 Build 0)  -->
<svg version="1.1" id="Layer_1" xmlns="http://www.w3.org/2000/svg" xmlns:xlink="http://www.w3.org/1999/xlink" x="0px" y="0px"
	 viewBox="0 0 100 100" style="enable-background:new 0 0 100 100;" xml:space="preserve">
<path d="M93,91h-3.8L52.3,22l7.5-14c0.5-1,0.2-2.2-0.8-2.7c-1-0.5-2.2-0.2-2.7,0.8L50,17.7L43.8,6.1c-0.5-1-1.7-1.3-2.7-0.8
	c-1,0.5-1.3,1.7-0.8,2.7l7.5,14L10.8,91H7c-1.1,0-2,0.9-2,2s0.9,2,2,2h35h16h35c1.1,0,2-0.9,2-2S94.1,91,93,91z M40.2,81H20.7
	L35,54.2l3.4,4.1c0.8,0.9,2.3,0.9,3.1,0l3.5-4.2l3.5,4.2c0.8,0.9,2.3,0.9,3.1,0l3.5-4.2l3.5,4.2c0.4,0.5,0.9,0.7,1.5,0.7
	s1.2-0.3,1.5-0.7l3.4-4.1L79.3,81H59.8c-0.9-4.6-5-8-9.8-8C45.2,73,41.1,76.4,40.2,81z M41,43h18l3.9,7.4L60,53.9l-3.5-4.2
	c-0.8-0.9-2.3-0.9-3.1,0L50,53.9l-3.5-4.2c-0.8-0.9-2.3-0.9-3.1,0L40,53.9l-2.9-3.5L41,43z M60,85h21.5l3.2,6H60V85z M56.8,39H43.2
	L50,26.2L56.8,39z M18.5,85H40v6H15.3L18.5,85z M44,91v-8c0-3.3,2.7-6,6-6s6,2.7,6,6v8H44z"/>
</svg>
