<?xml version="1.0" encoding="UTF-8"?>
<svg width="73px" height="63px" viewBox="0 0 73 63" version="1.1" xmlns="http://www.w3.org/2000/svg" xmlns:xlink="http://www.w3.org/1999/xlink">
    <!-- Generator: Sketch 53.2 (72643) - https://sketchapp.com -->
    <title>Group 2</title>
    <desc>Created with Sketch.</desc>
    <g id="Page-2" stroke="none" stroke-width="1" fill="none" fill-rule="evenodd">
        <g id="Group-2" transform="translate(-0.000022, 0.000015)" fill-rule="nonzero">
            <polygon id="Path" fill="#FF6EB4" points="36.5114218 5.38138525 36.0568218 5.38138525 36.0568218 8.32188525 36.5114218 8.32188525"></polygon>
            <path d="M36.2821218,5.58618525 C35.7295218,5.58698525 35.1891218,5.42388525 34.7292218,5.11738525 C34.2694218,4.81098525 33.9107218,4.37508525 33.6987218,3.86478525 C33.4867218,3.35448525 33.4308218,2.79278525 33.5381218,2.25068525 C33.6454218,1.70858525 33.9111218,1.21058525 34.3016218,0.819485255 C34.6920218,0.428485255 35.1897218,0.162085255 35.7316218,0.0539852548 C36.2735218,-0.0541147452 36.8353218,0.000885254846 37.3459218,0.212185255 C37.8565218,0.423485255 38.2930218,0.781485255 38.6001218,1.24088525 C38.9072218,1.70028525 39.0711218,2.24048525 39.0711218,2.79308525 C39.0711218,3.53308525 38.7774218,4.24298525 38.2545218,4.76658525 C37.7315218,5.29028525 37.0222218,5.58508525 36.2821218,5.58618525 Z M36.2821218,0.413585255 C35.8103218,0.412785255 35.3489218,0.551985255 34.9563218,0.813585255 C34.5637218,1.07518525 34.2576218,1.44738525 34.0767218,1.88308525 C33.8958218,2.31878525 33.8482218,2.79838525 33.9401218,3.26118525 C34.0319218,3.72388525 34.2590218,4.14898525 34.5926218,4.48258525 C34.9262218,4.81618525 35.3513218,5.04328525 35.8140218,5.13508525 C36.2768218,5.22698525 36.7563218,5.17938525 37.1920218,4.99848525 C37.6277218,4.81758525 38.0000218,4.51138525 38.2616218,4.11878525 C38.5232218,3.72618525 38.6624218,3.26478525 38.6615218,2.79308525 C38.6605218,2.16228525 38.4094218,1.55778525 37.9634218,1.11178525 C37.5174218,0.665785255 36.9128218,0.414685255 36.2821218,0.413585255 Z" id="Shape" fill="#FF6EB4"></path>
            <path d="M70.0040218,30.3102853 C62.4846218,17.6922853 51.8324218,10.1607853 39.8943218,8.55128525 C37.4970218,8.22768525 35.0672218,8.22768525 32.6699218,8.55128525 C20.7317218,10.1730853 10.0795218,17.7044853 2.56032176,30.3102853 C-2.36237824,38.5829853 -0.380178244,49.1491853 10.1942218,52.2740853 C21.2191218,55.5503853 24.0736218,53.1750853 36.2821218,52.9620853 C48.4906218,53.1750853 51.3451218,55.5503853 62.3700218,52.2740853 C72.9440218,49.1491853 74.9470218,38.5829853 70.0040218,30.3102853 Z M22.3412218,37.9441853 C18.4301218,37.9441853 15.2480218,36.4533853 15.2480218,34.6022853 C15.2480218,32.7511853 18.4260218,33.6193853 22.3412218,33.6193853 C26.2565218,33.6193853 29.4304218,32.7592853 29.4304218,34.6022853 C29.4304218,36.4451853 26.2565218,37.9441853 22.3412218,37.9441853 Z M50.2229218,37.9441853 C46.3077218,37.9441853 43.1337218,36.4492853 43.1337218,34.6022853 C43.1337218,32.7551853 46.3077218,33.6193853 50.2229218,33.6193853 C54.1381218,33.6193853 57.3367218,32.7674853 57.3367218,34.6022853 C57.3367218,36.4369853 54.1422218,37.9441853 50.2229218,37.9441853 Z" id="Shape" fill="#FF6EB4"></path>
            <path d="M35.9626218,62.9998853 L33.0016218,62.9998853 L33.0016218,62.7705853 C33.0016218,61.8490853 33.0795218,60.9194853 33.1532218,60.0184853 C33.2269218,59.1174853 33.3047218,58.2000853 33.3047218,57.2990853 C33.3047218,56.5168853 33.2269218,55.6854853 33.1532218,54.8868853 L33.0958218,54.2356853 L33.3334218,54.2356853 C34.0583218,54.2070853 34.8200218,54.1824853 35.6227218,54.1701853 L35.8766218,54.1701853 L35.8111218,54.8827853 C35.7374218,55.7018853 35.6637218,56.5209853 35.6637218,57.3072853 C35.6637218,58.2082853 35.7374218,59.1338853 35.8111218,60.0266853 C35.8848218,60.9194853 35.9626218,61.8572853 35.9626218,62.7787853 L35.9626218,62.9998853 Z M33.4603218,62.5453853 L35.5080218,62.5453853 C35.5080218,61.7262853 35.4261218,60.8702853 35.3565218,60.0552853 C35.2828218,59.1501853 35.2050218,58.2205853 35.2050218,57.2990853 C35.2050218,56.4799853 35.2828218,55.6608853 35.3565218,54.8417853 L35.3565218,54.6247853 C34.7381218,54.6247853 34.1279218,54.6575853 33.5709218,54.6779853 L33.5709218,54.8499853 C33.6446218,55.6690853 33.7224218,56.4881853 33.7224218,57.3072853 C33.7224218,58.2287853 33.6446218,59.1583853 33.5709218,60.0634853 C33.5422218,60.8702853 33.4726218,61.7139853 33.4603218,62.5453853 Z" id="Shape" fill="#FF6EB4"></path>
            <path d="M32.2276218,62.9999853 L29.2707218,62.9999853 L29.2707218,62.7705853 C29.2707218,61.8490853 29.3444218,60.9194853 29.4222218,60.0184853 C29.5000218,59.1174853 29.5697218,58.2000853 29.5697218,57.2990853 C29.5697218,56.5127853 29.4959218,55.6608853 29.4222218,54.8745853 L29.3813218,54.4650853 L29.6147218,54.4650853 C30.3273218,54.4158853 31.0768218,54.3667853 31.8713218,54.3257853 L32.1334218,54.3257853 L32.0761218,54.9401853 C32.0023218,55.7387853 31.9286218,56.5782853 31.9286218,57.3441853 C31.9286218,58.2451853 32.0064218,59.1706853 32.0802218,60.0634853 C32.1539218,60.9562853 32.2276218,61.8941853 32.2276218,62.8156853 L32.2276218,62.9999853 Z M29.7253218,62.5453853 L31.7730218,62.5453853 C31.7730218,61.7262853 31.6911218,60.8702853 31.6256218,60.0552853 C31.5518218,59.1542853 31.4740218,58.2205853 31.4740218,57.2990853 C31.4740218,56.4799853 31.5477218,55.6608853 31.6215218,54.8418853 L31.6215218,54.7558853 L29.8973218,54.8827853 C29.9710218,55.7018853 30.0447218,56.5209853 30.0447218,57.3113853 C30.0447218,58.2328853 29.9710218,59.1665853 29.8932218,60.0675853 C29.8072218,60.8702853 29.7376218,61.7139853 29.7253218,62.5453853 Z" id="Shape" fill="#FF6EB4"></path>
            <path d="M28.4966218,62.9999853 L25.5356218,62.9999853 L25.5356218,62.7705853 C25.5356218,61.8491853 25.6135218,60.9194853 25.6872218,60.0184853 C25.7609218,59.1174853 25.8387218,58.2000853 25.8387218,57.2990853 C25.8387218,56.5168853 25.7609218,55.6977853 25.6954218,54.9728853 L25.6749218,54.7435853 L28.3779218,54.5264853 L28.3451218,54.8827853 C28.2714218,55.7018853 28.1936218,56.5209853 28.1936218,57.2990853 C28.1936218,58.2000853 28.2714218,59.1256853 28.3451218,60.0184853 C28.4188218,60.9112853 28.4966218,61.8491853 28.4966218,62.7705853 L28.4966218,62.9999853 Z M25.9943218,62.5453853 L28.0420218,62.5453853 C28.0420218,61.7262853 27.9642218,60.8703853 27.8946218,60.0553853 C27.8209218,59.1502853 27.7431218,58.2205853 27.7431218,57.2990853 C27.7431218,56.5537853 27.8086218,55.7796853 27.8782218,55.0220853 L26.1745218,55.1612853 C26.2360218,55.8370853 26.2974218,56.5782853 26.2974218,57.2990853 C26.2974218,58.2205853 26.2196218,59.1502853 26.1459218,60.0553853 C26.0721218,60.8703853 26.0025218,61.7139853 25.9943218,62.5453853 Z" id="Shape" fill="#FF6EB4"></path>
            <path d="M24.7616218,62.9999853 L21.8006218,62.9999853 L21.8006218,62.7705853 C21.8006218,61.8490853 21.8784218,60.9194853 21.9521218,60.0184853 C22.0258218,59.1174853 22.1037218,58.2000853 22.1037218,57.2990853 C22.1037218,56.5987853 22.0422218,55.8533853 21.9849218,55.2145853 L21.9603218,54.9728853 L22.2019218,54.9728853 C22.8531218,54.9483853 23.5575218,54.9114853 24.3480218,54.8541853 L24.6142218,54.8541853 L24.5937218,55.1203853 C24.5241218,55.8738853 24.4626218,56.6110853 24.4626218,57.3277853 C24.4626218,58.2287853 24.5363218,59.1543853 24.6101218,60.0471853 C24.6838218,60.9399853 24.7616218,61.8777853 24.7616218,62.7992853 L24.7616218,62.9999853 Z M22.2593218,62.5453853 L24.3070218,62.5453853 C24.3070218,61.7262853 24.2251218,60.8702853 24.1555218,60.0553853 C24.0818218,59.1543853 24.0080218,58.2205853 24.0080218,57.2990853 C24.0080218,56.6479853 24.0531218,55.9885853 24.1145218,55.3168853 C23.5166218,55.3578853 22.9719218,55.3906853 22.4763218,55.4110853 C22.5255218,56.0049853 22.5746218,56.6642853 22.5746218,57.2990853 C22.5746218,58.2205853 22.4968218,59.1543853 22.4231218,60.0553853 C22.3412218,60.8702853 22.2716218,61.7139853 22.2593218,62.5453853 Z" id="Shape" fill="#FF6EB4"></path>
            <path d="M20.5269218,62.9999853 L17.5659218,62.9999853 L17.5659218,62.7705853 C17.6021218,61.8302853 17.7394218,60.8965853 17.9755218,59.9856853 C18.2062218,59.1070853 18.3435218,58.2065853 18.3850218,57.2990853 C18.3850218,56.5946853 18.3236218,55.8656853 18.2621218,55.1776853 L18.2621218,54.9114853 L18.5242218,54.9114853 C19.2369218,54.9564853 19.9331218,54.9769853 20.6539218,54.9769853 L20.8873218,54.9769853 L20.8668218,55.2267853 C20.8095218,55.8533853 20.7481218,56.5823853 20.7481218,57.2745853 C20.7481218,58.1918853 20.6989218,59.1215853 20.6457218,60.0225853 C20.5924218,60.9235853 20.5474218,61.8409853 20.5474218,62.7459853 L20.5269218,62.9999853 Z M18.0205218,62.5453853 L20.0682218,62.5453853 C20.0682218,61.7016853 20.1215218,60.8498853 20.1706218,60.0225853 C20.2198218,59.1297853 20.2689218,58.2041853 20.2689218,57.2990853 C20.2689218,56.6724853 20.3140218,56.0254853 20.3672218,55.4479853 C19.8102218,55.4479853 19.2696218,55.4479853 18.7290218,55.3987853 C18.7823218,56.0172853 18.8273218,56.6683853 18.8273218,57.2990853 C18.7915218,58.2394853 18.6542218,59.1731853 18.4178218,60.0839853 C18.2154218,60.8915853 18.0825218,61.7150853 18.0205218,62.5453853 Z" id="Shape" fill="#FF6EB4"></path>
            <path d="M14.9941218,62.7869853 L12.1273218,62.7869853 L12.1273218,62.5617853 C12.1273218,61.4559853 12.8112218,60.5467853 13.4706218,59.6621853 C14.0726218,58.8676853 14.6378218,58.1140853 14.6378218,57.2990853 C14.6378218,56.4840853 14.5599218,55.6854853 14.4862218,54.8827853 L14.4494218,54.4732853 L14.7401218,54.5182853 C15.4855218,54.6411853 16.2022218,54.7353853 16.9271218,54.8131853 L17.1483218,54.8131853 L17.1483218,55.0384853 C17.0745218,55.8575853 17.0131218,56.5742853 17.0131218,57.2909853 C17.0131218,59.2239853 16.0302218,60.9767853 15.0801218,62.6641853 L14.9941218,62.7869853 Z M12.5941218,62.3323853 L14.7442218,62.3323853 C15.6821218,60.6614853 16.5544218,59.0560853 16.5544218,57.2990853 C16.5544218,56.6315853 16.6077218,55.9598853 16.6732218,55.2268853 C16.1080218,55.1653853 15.5469218,55.0916853 14.9736218,55.0015853 C15.0432218,55.7633853 15.1087218,56.5455853 15.1087218,57.2990853 C15.1087218,58.2656853 14.4698218,59.1133853 13.8514218,59.9365853 C13.2699218,60.6942853 12.6965218,61.4723853 12.5941218,62.3323853 Z" id="Shape" fill="#FF6EB4"></path>
            <path d="M9.95662176,62.3733853 L5.61142176,61.9105853 L5.61142176,61.7057853 C5.61142176,60.6532853 6.84002176,60.0676853 8.10962176,59.4410853 C9.37922176,58.8144853 10.5914218,58.2369853 10.9150218,57.2294853 C11.1976218,56.3489853 11.0133218,55.3251853 10.8331218,54.3381853 L10.7225218,53.6951853 L11.0542218,53.7729853 C11.8282218,53.9531853 12.5777218,54.1128853 13.2862218,54.2521853 L13.4869218,54.2889853 L13.4869218,54.4896853 C13.4623218,54.8254853 13.4337218,55.1653853 13.4091218,55.5012853 C13.3599218,56.1114853 13.3067218,56.7298853 13.2780218,57.3113853 C13.1838218,59.1051853 12.0781218,59.9038853 11.1935218,60.5467853 C10.5095218,61.0423853 9.96482176,61.4313853 9.96482176,62.1235853 L9.95662176,62.3733853 Z M6.09462176,61.5051853 L9.51842176,61.8696853 C9.62902176,61.1037853 10.2515218,60.6409853 10.9068218,60.1781853 C11.7586218,59.5638853 12.7211218,58.8635853 12.8071218,57.2868853 C12.8398218,56.6888853 12.8890218,56.0581853 12.9381218,55.4643853 C12.9586218,55.1940853 12.9832218,54.9278853 13.0036218,54.6452853 C12.4508218,54.5387853 11.8774218,54.4159853 11.2877218,54.2807853 C11.4760218,55.3128853 11.6603218,56.3817853 11.3491218,57.3564853 C10.9641218,58.5482853 9.55532176,59.2321853 8.31032176,59.8382853 C7.26182176,60.3584853 6.26672176,60.8457853 6.09462176,61.5051853 Z" id="Shape" fill="#FF6EB4"></path>
            <path d="M39.5626218,62.9999853 L36.6016218,62.9999853 L36.6016218,62.7705853 C36.6016218,61.8490853 36.6794218,60.9194853 36.7532218,60.0184853 C36.8269218,59.1174853 36.9047218,58.2000853 36.9047218,57.2990853 C36.9047218,56.5127853 36.8269218,55.6609853 36.7532218,54.8745853 L36.6876218,54.1496853 L36.9415218,54.1496853 C37.7606218,54.1496853 38.5060218,54.1865853 39.2309218,54.2152853 L39.4684218,54.2152853 L39.4111218,54.8827853 C39.3374218,55.7018853 39.2596218,56.5209853 39.2596218,57.3031853 C39.2596218,58.2041853 39.3374218,59.1297853 39.4111218,60.0225853 C39.4848218,60.9153853 39.5626218,61.8531853 39.5626218,62.7746853 L39.5626218,62.9999853 Z M37.0603218,62.5453853 L39.1080218,62.5453853 C39.1080218,61.7262853 39.0302218,60.8702853 38.9606218,60.0553853 C38.8869218,59.1502853 38.8091218,58.2205853 38.8091218,57.2990853 C38.8091218,56.4799853 38.8869218,55.6609853 38.9606218,54.8418853 L38.9606218,54.6739853 C38.3872218,54.6739853 37.7934218,54.6329853 37.1750218,54.6206853 L37.1750218,54.8377853 C37.2487218,55.6568853 37.3265218,56.4963853 37.3265218,57.2949853 C37.3265218,58.2164853 37.2487218,59.1461853 37.1750218,60.0512853 C37.1381218,60.8702853 37.0685218,61.7139853 37.0603218,62.5453853 Z" id="Shape" fill="#FF6EB4"></path>
            <path d="M43.2975218,62.9999853 L40.3365218,62.9999853 L40.3365218,62.7705853 C40.3365218,61.8490853 40.4102218,60.9194853 40.4880218,60.0184853 C40.5658218,59.1174853 40.6355218,58.2000853 40.6355218,57.2990853 C40.6355218,56.5127853 40.5617218,55.6609853 40.4880218,54.8745853 L40.4307218,54.2807853 L40.6928218,54.2807853 C41.4873218,54.3216853 42.2368218,54.3708853 42.9494218,54.4199853 L43.1828218,54.4199853 L43.1460218,54.8295853 C43.0722218,55.6486853 42.9944218,56.4676853 42.9944218,57.2540853 C42.9944218,58.1550853 43.0722218,59.0805853 43.1460218,59.9733853 C43.2197218,60.8661853 43.2975218,61.8040853 43.2975218,62.7255853 L43.2975218,62.9999853 Z M40.7911218,62.5453853 L42.8388218,62.5453853 C42.8388218,61.7262853 42.7569218,60.8702853 42.6914218,60.0552853 C42.6176218,59.1543853 42.5398218,58.2205853 42.5398218,57.2990853 C42.5398218,56.5045853 42.6135218,55.6609853 42.6873218,54.8704853 C42.1262218,54.8336853 41.5446218,54.7967853 40.9344218,54.7640853 L40.9344218,54.8336853 C41.0122218,55.6527853 41.0860218,56.4922853 41.0860218,57.2908853 C41.0860218,58.2123853 41.0122218,59.1461853 40.9344218,60.0471853 C40.8730218,60.8702853 40.8034218,61.7139853 40.7911218,62.5453853 Z" id="Shape" fill="#FF6EB4"></path>
            <path d="M47.0284218,62.9999853 L44.0674218,62.9999853 L44.0674218,62.7705853 C44.0674218,61.8491853 44.1453218,60.9194853 44.2190218,60.0184853 C44.2927218,59.1174853 44.3705218,58.2000853 44.3705218,57.2990853 C44.3705218,56.5127853 44.2927218,55.6854853 44.2190218,54.8827853 L44.1903218,54.5264853 L46.8892218,54.7435853 L46.8892218,54.9728853 C46.8114218,55.8452853 46.7500218,56.5700853 46.7500218,57.2990853 C46.7500218,58.2000853 46.8237218,59.1256853 46.8974218,60.0184853 C46.9711218,60.9112853 47.0489218,61.8491853 47.0489218,62.7705853 L47.0284218,62.9999853 Z M44.5261218,62.5453853 L46.5738218,62.5453853 C46.5738218,61.7262853 46.4919218,60.8703853 46.4223218,60.0553853 C46.3486218,59.1502853 46.2708218,58.2205853 46.2708218,57.2990853 C46.2708218,56.6192853 46.3240218,55.9475853 46.3936218,55.1612853 L44.6900218,55.0220853 C44.7596218,55.7796853 44.8251218,56.5537853 44.8251218,57.2990853 C44.8251218,58.2205853 44.7473218,59.1502853 44.6736218,60.0553853 C44.6080218,60.8703853 44.5384218,61.7139853 44.5261218,62.5453853 Z" id="Shape" fill="#FF6EB4"></path>
            <path d="M50.7841218,62.9998853 L47.8231218,62.9998853 L47.8231218,62.7705853 C47.8231218,61.8490853 47.9009218,60.9194853 47.9746218,60.0184853 C48.0483218,59.1174853 48.1220218,58.2000853 48.1220218,57.2990853 C48.1220218,56.5864853 48.0606218,55.8492853 47.9951218,55.0916853 L47.9705218,54.8254853 L48.2367218,54.8254853 C49.0271218,54.8827853 49.7315218,54.9196853 50.3827218,54.9441853 L50.6243218,54.9441853 L50.5998218,55.1858853 C50.5424218,55.8247853 50.4810218,56.5700853 50.4810218,57.2703853 C50.4810218,58.1713853 50.5588218,59.0969853 50.6325218,59.9897853 C50.7062218,60.8825853 50.7841218,61.8204853 50.7841218,62.7418853 L50.7841218,62.9998853 Z M48.2777218,62.5453853 L50.3254218,62.5453853 C50.3254218,61.7262853 50.2476218,60.8702853 50.1779218,60.0552853 C50.1042218,59.1542853 50.0264218,58.2205853 50.0264218,57.2990853 C50.0264218,56.6642853 50.0755218,56.0049853 50.1288218,55.4110853 C49.6128218,55.4110853 49.0681218,55.3578853 48.4906218,55.3168853 C48.5520218,55.9926853 48.6012218,56.6519853 48.6012218,57.2990853 C48.6012218,58.2205853 48.5234218,59.1542853 48.4497218,60.0552853 C48.3268218,60.8702853 48.2695218,61.7139853 48.2572218,62.5453853 L48.2777218,62.5453853 Z" id="Shape" fill="#FF6EB4"></path>
            <path d="M54.9982218,62.9999853 L52.0372218,62.9999853 L52.0372218,62.7705853 C52.0372218,61.8655853 51.9880218,60.9399853 51.9389218,60.0471853 C51.8897218,59.1543853 51.8365218,58.2164853 51.8365218,57.2991853 C51.8365218,56.6028853 51.7751218,55.8738853 51.7218218,55.2513853 L51.6973218,55.0015853 L51.9471218,55.0015853 C52.6679218,55.0015853 53.3641218,54.9810853 54.0767218,54.9360853 L54.3429218,54.9360853 L54.3183218,55.2022853 C54.2569218,55.8902853 54.1955218,56.6192853 54.1955218,57.3236853 C54.2350218,58.2313853 54.3723218,59.1320853 54.6050218,60.0102853 C54.8392218,60.9215853 54.9764218,61.8550853 55.0146218,62.7951853 L54.9982218,62.9999853 Z M52.4918218,62.5453853 L54.5395218,62.5453853 C54.4753218,61.7158853 54.3382218,60.8935853 54.1299218,60.0880853 C53.8935218,59.1772853 53.7562218,58.2435853 53.7204218,57.3032853 C53.7204218,56.6725853 53.7655218,56.0213853 53.8187218,55.4029853 C53.2699218,55.4315853 52.7293218,55.4479853 52.1805218,55.4520853 C52.2297218,56.0336853 52.2747218,56.6806853 52.2747218,57.3032853 C52.2747218,58.2082853 52.3280218,59.1338853 52.3771218,60.0266853 C52.4222218,60.8498853 52.4836218,61.7016853 52.4918218,62.5453853 Z" id="Shape" fill="#FF6EB4"></path>
            <path d="M60.4370218,62.7869853 L57.5702218,62.7869853 L57.5046218,62.6722853 C56.5504218,60.9808853 55.5675218,59.2321853 55.5675218,57.2990853 C55.5675218,56.5782853 55.5061218,55.8534853 55.4323218,55.0466853 L55.4119218,54.8213853 L55.6330218,54.8213853 C56.3579218,54.7435853 57.0746218,54.6493853 57.8241218,54.5264853 L58.1108218,54.4814853 L58.0739218,54.8909853 C58.0002218,55.7100853 57.9224218,56.5291853 57.9224218,57.3195853 C57.9224218,58.1099853 58.4916218,58.8881853 59.0896218,59.6826853 C59.7489218,60.5672853 60.4329218,61.4764853 60.4329218,62.5821853 L60.4370218,62.7869853 Z M57.8405218,62.3323853 L59.9701218,62.3323853 C59.8800218,61.4723853 59.2943218,60.6942853 58.7414218,59.9365853 C58.1230218,59.1174853 57.4842218,58.2656853 57.4842218,57.2990853 C57.4842218,56.5455853 57.5538218,55.7633853 57.6234218,55.0015853 C57.0459218,55.0916853 56.4849218,55.1653853 55.9238218,55.2268853 C55.9852218,55.9394853 56.0385218,56.6315853 56.0385218,57.2990853 C56.0262218,59.0724853 56.8985218,60.6614853 57.8405218,62.3323853 Z" id="Shape" fill="#FF6EB4"></path>
            <path d="M62.6075218,62.3733853 L62.6075218,62.1235853 C62.6075218,61.4313853 62.0710218,61.0423853 61.3788218,60.5467853 C60.4901218,59.9038853 59.3885218,59.1051853 59.2943218,57.3113853 C59.2615218,56.7216853 59.2124218,56.1155853 59.1632218,55.5053853 C59.1345218,55.1653853 59.1059218,54.8295853 59.0813218,54.4896853 L59.0813218,54.2889853 L59.2820218,54.2521853 C59.9905218,54.1128853 60.7440218,53.9531853 61.5140218,53.7729853 L61.8498218,53.6951853 L61.7351218,54.3340853 C61.5590218,55.3251853 61.3747218,56.3489853 61.6532218,57.2294853 C61.9768218,58.2369853 63.2382218,58.8676853 64.4586218,59.4410853 C65.7450218,60.0635853 66.9570218,60.6696853 66.9570218,61.7057853 L66.9570218,61.9105853 L62.6075218,62.3733853 Z M59.5646218,54.6575853 L59.6260218,55.4766853 C59.6792218,56.0909853 59.7284218,56.7052853 59.7570218,57.2950853 C59.8431218,58.8717853 60.7645218,59.5393853 61.6573218,60.1863853 C62.3126218,60.6614853 62.9351218,61.1119853 63.0457218,61.8778853 L66.4690218,61.5133853 C66.3020218,60.8539853 65.3020218,60.3665853 64.2579218,59.8751853 C63.0293218,59.2690853 61.6000218,58.5850853 61.2191218,57.3933853 C60.9038218,56.4185853 61.0922218,55.3455853 61.2764218,54.3176853 C60.6908218,54.4282853 60.1133218,54.5510853 59.5646218,54.6575853 Z" id="Shape" fill="#FF6EB4"></path>
            <path d="M17.5415218,36.6294853 C18.2494218,36.6294853 18.8233218,36.0555853 18.8233218,35.3475853 C18.8233218,34.6396853 18.2494218,34.0657853 17.5415218,34.0657853 C16.8335218,34.0657853 16.2596218,34.6396853 16.2596218,35.3475853 C16.2596218,36.0555853 16.8335218,36.6294853 17.5415218,36.6294853 Z" id="Path" fill="#2350FF"></path>
            <path d="M45.4271218,36.6294853 C46.1351218,36.6294853 46.7090218,36.0555853 46.7090218,35.3475853 C46.7090218,34.6396853 46.1351218,34.0657853 45.4271218,34.0657853 C44.7192218,34.0657853 44.1453218,34.6396853 44.1453218,35.3475853 C44.1453218,36.0555853 44.7192218,36.6294853 45.4271218,36.6294853 Z" id="Path" fill="#2350FF"></path>
        </g>
    </g>
</svg>