<svg xmlns="http://www.w3.org/2000/svg" viewBox="0 0 1440 1024"><defs><style>.cls-1{fill:#2350ff;}.cls-10,.cls-2,.cls-3,.cls-4,.cls-5,.cls-7{stroke:#ff6eb4;}.cls-2,.cls-3,.cls-4,.cls-5,.cls-7{stroke-linecap:round;stroke-linejoin:round;}.cls-2,.cls-3,.cls-5{stroke-width:3.08px;}.cls-3,.cls-6{fill:#f8f6fb;}.cls-4,.cls-7{stroke-width:2.2px;}.cls-5,.cls-7,.cls-8{fill:none;}.cls-10,.cls-9{fill:#62e5f6;}.cls-10{stroke-miterlimit:10;stroke-width:0.44px;}</style></defs><g id="Layer_5" data-name="Layer 5"><rect class="cls-1" width="1440" height="1024"/></g><g id="Glasses"><path class="cls-2" d="M1346.94,789.89c9.37-35.5,2.11-125.7-64.5-169.1-11.11-7.24-50.23-30.91-67.28-57.37-6.53-10.13-20.26-7-22.89-7-8.9-.06-24.32,11.74-29.7,18-22.77,18.21-47.06,31.24-62.65,39.48-15,7.94-56.61,20.5-86.82,16.16-23.13-6.58-54.41-11.33-55.05-46.52-.16-9.2,8.19-30.94,3-38.17-6.84-9.49-36-14.43-46.65-15.74C887.82,544.32,876.14,604,873.29,633c-3.78,38.4,10.73,61.63,40.61,85.85,79.22,64.22,168.4,31.5,260.78,38C1257.28,762.58,1324.17,781.07,1346.94,789.89Z"/><path class="cls-2" d="M291.25,691.92c65.91-101,201.1-84,225.86-83.56,13.77-.13,48.23,4.95,60.41,6.84,28.08,4.35,57.85,5.42,86.35,5.92,43.7.78,80.21-9.85,117.62-32,13.33-11.35,21.85-28.65,42-26.53,7.2,2.44,35.69,15.53,48,24.3,20.14,14.29,38.74,37.58,50.93,59C945,685.54,953.11,740.05,943.61,785,906,770,829.1,801.14,741,785.23c-27-4.88-77.1-35.81-109.32-53.17-54.4-29.33-114.93-62.81-176.77-56.56-30.41,3.07-144.47,53.79-147,53.48-9-1.12-16.47-29.06-16.72-37.06"/><path class="cls-3" d="M625.58,445.84c14.4,27,17.9,57,29.12,85.59,10.7,27.25,33.55,50.12,64.71,49.1,14.69-.48,29.34-4.21,44-2.83C782.34,579.47,782.5,599.84,800,603c10,1.78,22.34-5.31,29.12-11.93,7.78-7.6,9.28-12.11,4-21.47-11.86-20.81-9.35-36.78-5.45-62.45,3.67-24.21-2.32-40.67,2.81-37.32,12,7.82,16.5-2.29,22.83-9.72,2.85-3.34,12.11-20.54,14.51-34.79,1.87-11.15-6.79-26.85-21.32-21-10,4-16.37,12.54-22.78,8.65,1.72-31.74,3.41-41.84-17.84-67.55-13.72-16.6-26-27.85-46.4-36.3-17.51-7.27-55.2-10.55-71.81-4.47-37.16,13.59-62.91,39.66-68.59,82.3-.91,6.88-4.63,35.29,6.55,58.93"/><path class="cls-3" d="M1289.7,382.2c-2.19-27.33-12-54.41-37.06-69.53-29-17.49-54.73-20.94-87.43-11.33-24.38,7.18-32.34,16.54-43.31,25.92-7.7,6.58-20.22,29.09-26.48,44.23-4.43,10.72-9.05,39.43-7.4,55.77,1.14,33.7,4.24,61.35,27.15,88.48,11.4,13.5,23.59,21.22,40.39,27.88,17.45,6.93,13.32,11,21.25,22.47,7.34,2.15,27.26,1,32.36-1.37,4.13-1.92-5.34-9.53,12.76-23,16.16-12,40.32-21.41,49.93-38.33C1286.62,477.39,1294.37,440.49,1289.7,382.2Z"/><path class="cls-2" d="M761.59,321.81c1.59,10.47-23.3,53.24-41.2,38.25-11.35-9.51,6.59-25.4,11.79-7,3.55,12.59-10.7,23.43-20,28.42-8.35,4.47-33.1,12.34-36.42-3.56-3.25-15.55,17.44-14.89,19.15,1.17,2.92,27.42-30.68,50.71-55.85,45.74-10-2-29.53-18.24-13.84-29.73,15.52-11.37,23.62,23.69,19,34.33-13.17,30.2-78.91,38.13-84.88-.43-2.59-16.81,11.15-50.51,32.55-44.2,14.29,4.21,2.06,19.5-10.88,16.63-41.08-9.09-33.15-76.24,6.43-102.21,10.76-7.07,32.67-10.48,29.6,2.18-2.23,9.19-23.19,14-29.62-5.69-10.54-32.27,25.25-53.34,41.18-56.54,23.56-4.74,66,3.95,58.56,25.1-2.59,7.34-18.85,10.67-18.86-1.68,0-18.42,44.79-24.73,58.86-14.06s22.83,55.81,1.4,49.75c-20.2-9.48,19.28-33.92,41-34.22,13-.17,27.93,1.06,37.28,11.25,21.07,22.95-18,47.77-18.77,32.07,2.86-22.22,48.31,2.37,50,24.39.65,8.81.13,19-11.66,19.3-5.36.15-14.55-6.6-6.31-12.31,22.94-15.88,49,94.33-4.88,75.56-12-4.17-40.08-46.68-23.26-56.44,9.72-5.64,22.79,17.85,1.35,19.1-17.86,1-37.81-25-42.8-38.93-1.18-3.32-4.45-15.34-1.82-19.64S761.37,312,761.59,321.81Z"/><path class="cls-4" d="M1194.55,316.43c-3.73,13,5.81,31.64,11.33,43.85,5.82,12.88,17.88,25.27,27,30.29,0-11.79-10-17.82-5.48-29.66,4.64,12.13,14.93,21.24,25,29.1-.13-4.64,0-9.11.12-13.69,10.27,21.84,21.37,65.06,31.67,87.46,7.59,16.49,41.49,51.31,51.35,56.74-.84-12.85-8.53-29.21-8.4-39.94,3.81,7.62,13.9,22,23.35,22.64-3-9.3-8.61-18.8-9.15-26.69,12.37,9,25.24,11.74,39,17.19-7-10.79-17.74-22.38-27-31.13,13.83,3.72,32.51.38,44.13-8.08-22-9.11-44.73-7.85-56.35-32.94-17.27-37.29-17.23-84.56-41.81-122.25-26-39.87-79.54-62.22-102.9-45.62-23.33-16.83-75.45,5.08-89.41,16-35.46,27.82-50.89,65.06-65.34,105.81-9,25.26-18.65,56.74-40,74.69,7.88,6.8,16.09,7.8,25.57,4.21a363.21,363.21,0,0,1-21.22,35.34c14.36,1.68,19.75-8.22,32.1-13-2.06,7.82-5.75,16-8.8,23.79-3.65,9.37-13.75,23.51-13.28,33.53,10.83-6.32,23.45-19,30.78-29.32-3.39,15.71-11.9,31.78-17.67,46.86,40.34-24.83,56.75-64.8,62.8-83.72,4.19-13.08,6.79-45.29,13.53-63.29,4.52-12.06,12.16-29.46,24.61-35-1.58,10.68-5.23,19.48-8.76,27.37,6.06-6.06,11.7-12.59,20.5-24.15,7.8-10.26,16-27.82,26.22-35.75-5.18,13.7-7.53,20.41-12.22,33.83C1180.83,349.75,1182,340.27,1194.55,316.43Z"/><path class="cls-5" d="M701.91,441.56c12.45,16,13.22,33.18,14.18,52,.42,8.18,0,13.6,8.11,15.95,3.28,1,9.69,1.06,13,1.46"/><path class="cls-5" d="M748.65,504.85c.84-4.23,4.61-8.63,9-11.09"/><path class="cls-5" d="M713.89,546c11.29-6,29.15-5.23,43.05-12.8,13.58-7.4,22.43-17.43,35.12-33"/><path class="cls-5" d="M713.89,546c6.53-1.93,28.46,3.34,37.43-.32,5.26-2.14,3.95-5.65,8.6-7.31,4.94-1.76,14.69.31,20.24-10.18,2.72-5.14,7.08-15.57,11.9-28"/><path class="cls-5" d="M713.89,546c19.08-8.75,29.75-16.43,30.07-16.64,4-2.72,6.34-.69,9.77-2,4.91-1.82,4.12-7.5,12.6-9.35,4.8-1,13.07-6.21,25.73-17.87"/><path class="cls-5" d="M1153.55,512.2c8.1,2.53,24.13,6.94,34.15,6,8.86-.8,27-6,32.61-10.58"/><path class="cls-5" d="M1161.65,514.54c5.34,2.73,4,12.79,9.58,14.62,5,1.64,9-5.29,15-4.18,8.34,1.57,10.74,7.6,17.5-.81,3.47-4.31,5.27-9.62,8.31-12.15"/><path class="cls-5" d="M1161.65,514.54c3.11-4.49,14.58-9.3,18.18-5.45,7.1,4.46,9.16,1.94,13.55-1.44,3.29-2.52,10.51-1.53,18.61,4.37"/><path class="cls-5" d="M1180.91,440.49c4,10.73-2.78,22.86-5.57,33.09-1.37,5-2.75,14.72,6.25,13.36"/><path class="cls-5" d="M1194.18,485.39a7.21,7.21,0,0,0-4.92,1.44"/><path class="cls-6" d="M951.7,470.91a114,114,0,0,1,11,9.19c7.78,7.27,15.42,15.83,15.16,18.76-.57,6.23-10,15.69-12.78,21.45-3.12,6.5-6.63,14.41-8,21.4-13.62-4.77-30.1-9.58-42.11-11.88-1.44-5.37-1.09-15.62,0-22.77,4.42,3.61,11.08,6.86,17.21,6.88,6.81,0,12.1-4.09,6-7.91a12.46,12.46,0,0,0,5,.59c15.61-1.92,3-21.5-8.68-28.75.75-15.95-1.09-29.38,1.63-46.75,4.26-12.79,11.18-6.6,13.74,3.55C951.94,443.38,951.14,461.92,951.7,470.91Z"/><path class="cls-6" d="M968.9,422.72c10.51,2.08-5.45,49.74-5.38,57.36l-.86,0a114,114,0,0,0-11-9.19C953.69,464.79,958.34,420.63,968.9,422.72Z"/><path class="cls-6" d="M938,506c-7.77-2.35-17.59-10.7-20.22-19.18a12.84,12.84,0,0,1-.41-6.65c1.22-3.87,6-4.61,8.26-4.9,2.43-.47,5.52.59,8.7,2.57,11.63,7.25,24.29,26.83,8.68,28.75A12.46,12.46,0,0,1,938,506Z"/><path class="cls-6" d="M938,506c6.13,3.82.84,7.93-6,7.91-6.13,0-12.79-3.27-17.21-6.88-7.74-6.32-12.3-24.58,3-20.21C920.44,495.33,930.26,503.68,938,506Z"/><path class="cls-7" d="M917.81,486.85a12.84,12.84,0,0,1-.41-6.65c1.22-3.87,6-4.61,8.26-4.9,2.43-.47,5.52.59,8.7,2.57,11.63,7.25,24.29,26.83,8.68,28.75a12.46,12.46,0,0,1-5-.59C930.26,503.68,920.44,495.33,917.81,486.85Z"/><path class="cls-7" d="M917.81,486.85c-15.26-4.37-10.7,13.89-3,20.21,4.42,3.61,11.08,6.86,17.21,6.88,6.81,0,12.1-4.09,6-7.91l-.39-.24"/><path class="cls-7" d="M914.85,507.06c-1.06,7.15-1.41,17.4,0,22.77,12,2.3,28.49,7.11,42.11,11.88,1.42-7,4.93-14.9,8-21.4,2.76-5.76,12.21-15.22,12.78-21.45.26-2.93-7.38-11.49-15.16-18.76a114,114,0,0,0-11-9.19,17.21,17.21,0,0,0-3.69-2.14c-5,12.87,5.89,23.18,14.15,29.33"/><path class="cls-7" d="M963.52,480.08c-.07-7.62,15.89-55.28,5.38-57.36s-15.21,42.07-17.2,48.19c-.56-9,.24-27.53-2-36.24-2.56-10.15-9.48-16.34-13.74-3.55-2.72,17.37-.88,30.8-1.63,46.75"/><rect class="cls-8" x="35.3" y="223.31" width="1425.33" height="475.11"/><path class="cls-5" d="M681.93,471.05c20.83-26.84,19.84-32,63.63-36.49"/><circle class="cls-9" cx="762.07" cy="428.66" r="45.17"/><circle class="cls-9" cx="664.67" cy="483.93" r="45.17"/><path class="cls-5" d="M1150.83,431.23c31.19-13.46,32.79-18.43,73.34-1.26"/><circle class="cls-10" cx="1241.48" cy="432.76" r="45.17"/><circle class="cls-10" cx="1129.5" cy="434.18" r="45.17"/><path class="cls-8" d="M430,499.8c2.48-41.06-6.86-96.71-35.35-128.49-2,4.19-3.94,9.75-9,12-1.34-7.63-3.72-17-9.83-22.09-.81,6.39-.23,13.51-1.76,20.27-18.79-3-41.92,7.88-58.58,16-.89-4.16-2.95-19.95-3.46-25.91-1-12,1.92-35.67-1.89-42.66-3.62,9.36-10.69,21.7-13.84,34.63-2.87,11.76-5.16,31.82-5.34,34.93-4,7.27-23.75,12.89-31.15,20.51a132,132,0,0,0,7.89-34.74c-12.67,8.92-15.23,34.75-17.42,48.7-3,19.05-2.74,38-.53,57.08,2.63,22.83,4,46.45,5,69.39.85,18.66,2.58,38.13.47,56.69-.85,7.49-5.17,24.86-9.56,42.4,9.34-7.35,16.69-12.81,19.8-15.23,11-8.59,64.51-38,72.51-48.44,6.49-5.31,23.42-11.81,31.32-8.49,7.79,2.11,32.76,9.94,59,18.8C425,570.69,427.83,535.85,430,499.8Z"/><path class="cls-2" d="M577.58,707.59c-15.71-35.6-46-58.38-80.94-76.6-2.64-1.38-6.19-3-10.41-4.76-14.35-6-36.53-13.91-57.92-21.13-26.2-8.86-51.17-16.69-59-18.8-7.9-3.32-24.83,3.18-31.32,8.49-8,10.46-61.49,39.85-72.51,48.44-3.11,2.42-10.46,7.88-19.8,15.23-23,18.13-58.15,47.81-71.61,72.16-4.71,8.52-6.77,16.39-4.72,22.87,11.53,8.34,77.2-5.81,111.93-.08,54.32,9,86.38,34.09,146.91,42,49.72,6.52,159.92-21.78,159.92-21.78C588.15,752.55,588.38,732.05,577.58,707.59Z"/><path class="cls-3" d="M298.57,288.53c-14.11,7.68-44.08,97.51-50.09,113.6-10,26.79-10.52,55.15-7.75,83.32,1.93,19.64,9.94,44.78,21.9,60.81,10.8,14.49,26.16,17.23,43.15,19.88,16.2,2.53,26,7.15,27.82,25.14.94,9.18-4.39,14.22,7.43,16.06,7.44,1.15,16.77-1.26,22.38-6.3,7.89-7.08,5.33-16.93,9.77-26.17,5.22-10.89,16.09-17,25.24-24.22,19.75-15.65,26.27-33.71,31.34-58.19,8.09-39.08,16.07-122.22-29.14-142.61C355,329.26,328,266.63,298.57,288.53Z"/><path class="cls-5" d="M301.11,528c19.27,2.86,27.15,3.92,42.58-.09s28.25-11.77,41.56-22.29"/><path class="cls-5" d="M301.11,528c3.73.42,16.31,10.83,21.82,12.09,6.88,1.58,8-.55,19.17-3.32,15.52-3.85,23.58-2.45,30.39-11.13,4.49-5.73,7.79-14.78,12.76-20"/><path class="cls-5" d="M301.11,528c6.92-3,8.22-3.51,15.29-6,4.75-1.69,19.06.56,25.78-1.57,7.35-1.23,15.29-9.32,22.8-10.58,6.73-1.14,12.66-1.52,20.27-4.19"/><path class="cls-5" d="M324.47,479.07c-2,3.68-6.94,10.26-8.51,14.53-3.2,8.73,8.05,7.21,13.51,4.27"/><path class="cls-5" d="M344.87,491.62c2.35-2.8,6.26-5.11,10.14-4.91"/><path class="cls-2" d="M245.72,658.46c4.39-17.54,8.71-34.91,9.56-42.4,2.11-18.56.38-38-.47-56.69-1.05-22.94-2.39-46.56-5-69.39-2.21-19.11-2.46-38,.53-57.08,2.19-13.95,4.75-39.78,17.42-48.7a132,132,0,0,1-7.89,34.74c7.4-7.62,27.11-13.24,31.15-20.51.18-3.11,2.47-23.17,5.34-34.93,3.15-12.93,10.22-25.27,13.84-34.63,3.81,7,.85,30.61,1.89,42.66.51,6,2.57,21.75,3.46,25.91,16.66-8.11,39.79-19,58.58-16,1.53-6.76.95-13.88,1.76-20.27,6.11,5.05,8.49,14.46,9.83,22.09,5-2.21,7-7.77,9-12,28.49,31.78,37.83,87.43,35.35,128.49-2.18,36.05-5,70.89-1.7,105.3,21.39,7.22,43.57,15.11,57.92,21.13a145.82,145.82,0,0,1-6.56-25.13C468,527.79,480.73,429.5,468,355.75c-10.23-59.27-55.58-128.5-144.5-118.18-42.45,4.92-92.47,22.72-125,110.79-21,56.75-19.7,108.63-37.15,151-41.06,99.81-89.55,114-118.48,216.75,1-3.55,61.75,11.58,87.8,15,10.74,1.4,26.95,1.25,43.43-.49C187.57,706.27,222.69,676.59,245.72,658.46Z"/><path class="cls-6" d="M291.25,626.85c.83,11.85,4.55,22.28,7.58,34.7,4.34,17.69-5.11,10.41-12.47,1.2a58.67,58.67,0,0,1-6.44-9.71c-6.18-12.48-8.45-25.15-5.51-39.1,1-4.79,3.11-7.77,5.84-9.57,6.21-4.09,15.69-2.1,23.11-1.45-4.58-8.17-9.95-21.78-3.4-28,5.12-4.21,8.84,7.48,15.93,15,12,9.89,11.57,14.15,11.57,14.15C317.53,611.34,297.58,622.29,291.25,626.85Z"/><path class="cls-6" d="M286.36,662.75c-.2,11-7.78,12-17.11,2.17-.69-.73-1.35-1.46-2-2.2a47,47,0,0,1-9.54-18.6c-2.26-8.26-2.8-16.81-.71-23.85,2.71-9.07,9.79-15.64,23.22-15.9-2.73,1.8-4.84,4.78-5.84,9.57-2.94,13.95-.67,26.62,5.51,39.1A58.67,58.67,0,0,0,286.36,662.75Z"/><path class="cls-6" d="M244.84,630.58c2.41-6,6.83-10.41,12.19-10.31-2.09,7-1.55,15.59.71,23.85a47,47,0,0,0,9.54,18.6c-.44,6.27-1.54,15.55-6.67,15-4.13-1.46-7.19-4.81-9.55-8.94h0c-3.76-6.59-5.71-15.18-7.36-21.29A27.52,27.52,0,0,1,244.84,630.58Z"/><path class="cls-6" d="M251.06,668.81c1.67,6,.22,10.94-2.89,12.26-15.27-2.23-17.25-22.09-17.4-27.83-.44-17.16,10.09-23,14.07-22.66a27.52,27.52,0,0,0-1.14,16.93c1.65,6.11,3.6,14.7,7.36,21.29Z"/><path class="cls-5" d="M280.25,604.37h0c-13.43.26-20.51,6.83-23.22,15.9-2.09,7-1.55,15.59.71,23.85a47,47,0,0,0,9.54,18.6c.62.74,1.28,1.47,2,2.2,9.33,9.87,16.91,8.85,17.11-2.17"/><path class="cls-5" d="M251.06,668.81c2.36,4.13,5.42,7.48,9.55,8.94,5.13.52,6.23-8.76,6.67-15"/><path class="cls-5" d="M257,620.27c-5.36-.1-9.78,4.32-12.19,10.31a27.52,27.52,0,0,0-1.14,16.93c1.65,6.11,3.6,14.7,7.36,21.29"/><path class="cls-5" d="M244.84,630.58h0c-4-.39-14.51,5.5-14.07,22.66.15,5.74,2.13,25.6,17.4,27.83,3.11-1.32,4.56-6.26,2.89-12.26h0"/><path class="cls-5" d="M291.25,626.85c6.33-4.56,26.28-15.51,36.21-22.83,0,0,.47-4.26-11.57-14.15-7.09-7.52-10.81-19.21-15.93-15-6.55,6.27-1.18,19.88,3.4,28-7.42-.65-16.9-2.64-23.11,1.45-2.73,1.8-4.84,4.78-5.84,9.57-2.94,13.95-.67,26.62,5.51,39.1a58.67,58.67,0,0,0,6.44,9.71c7.36,9.21,16.81,16.49,12.47-1.2-3-12.42-6.75-22.85-7.58-34.7a68.1,68.1,0,0,1,.13-11.21"/><path class="cls-5" d="M294.74,449.08c27-20.61,27.36-25.81,70.85-19"/><circle class="cls-9" cx="383.06" cy="428.64" r="45.17"/><circle class="cls-9" cx="274.75" cy="457.1" r="45.17"/></g></svg>